<svg width="64" height="64" viewBox="0 0 64 64" fill="none" xmlns="http://www.w3.org/2000/svg">
<path d="M38.0068 24.183C37.7332 19.6894 38.0068 15.3743 38.8277 11.2377C39.0873 9.92532 39.4688 8.68482 39.9719 7.51619C41.0119 5.09547 43.443 3.06081 46.0342 2.36868C55.9918 -0.295503 62.5827 12.1246 54.8371 18.8859C53.9073 19.6975 52.5822 20.4673 50.8617 21.1954C46.8179 22.9112 42.73 24.0682 38.5981 24.6665C38.5175 24.6776 38.444 24.7187 38.3919 24.7817C38.3398 24.8447 38.3129 24.9252 38.3164 25.0073C38.692 32.8886 38.3755 40.9472 36.553 48.5502C36.2145 49.9623 35.7925 51.255 35.287 52.4282C32.3724 59.1617 25.4128 62.9737 18.1611 61.7842C10.7042 60.5634 5.03146 53.9968 5.00015 46.4286C4.97233 39.6186 8.72514 34.478 14.7839 31.4904C21.8861 27.9845 29.736 25.9012 37.7008 24.5691C37.7904 24.5538 37.8713 24.5059 37.9278 24.4347C37.9843 24.3634 38.0124 24.2738 38.0068 24.183ZM55.3797 11.589C55.3797 10.6883 55.2023 9.79644 54.8576 8.9643C54.5129 8.13216 54.0077 7.37606 53.3708 6.73917C52.7339 6.10228 51.9778 5.59707 51.1457 5.25239C50.3135 4.90771 49.4217 4.7303 48.521 4.7303C46.7019 4.7303 44.9574 5.45291 43.6711 6.73917C42.3849 8.02543 41.6623 9.76997 41.6623 11.589C41.6623 13.4081 42.3849 15.1526 43.6711 16.4389C44.9574 17.7251 46.7019 18.4477 48.521 18.4477C49.4217 18.4477 50.3135 18.2703 51.1457 17.9256C51.9778 17.581 52.7339 17.0757 53.3708 16.4389C54.0077 15.802 54.5129 15.0459 54.8576 14.2137C55.2023 13.3816 55.3797 12.4897 55.3797 11.589Z" fill="#F4313F"/>
<path d="M55.3797 11.589C55.3797 12.4897 55.2023 13.3816 54.8576 14.2137C54.5129 15.0459 54.0077 15.802 53.3708 16.4389C52.7339 17.0757 51.9778 17.581 51.1457 17.9256C50.3135 18.2703 49.4217 18.4477 48.521 18.4477C46.7019 18.4477 44.9574 17.7251 43.6711 16.4389C42.3849 15.1526 41.6623 13.4081 41.6623 11.589C41.6623 9.76997 42.3849 8.02543 43.6711 6.73917C44.9574 5.45291 46.7019 4.7303 48.521 4.7303C49.4217 4.7303 50.3135 4.90771 51.1457 5.25239C51.9778 5.59707 52.7339 6.10228 53.3708 6.73917C54.0077 7.37606 54.5129 8.13216 54.8576 8.9643C55.2023 9.79644 55.3797 10.6883 55.3797 11.589ZM54.3328 11.589C54.3328 10.0486 53.7208 8.57118 52.6316 7.4819C51.5423 6.39263 50.0649 5.78068 48.5245 5.78068C46.984 5.78068 45.5066 6.39263 44.4173 7.4819C43.3281 8.57118 42.7161 10.0486 42.7161 11.589C42.7161 13.1295 43.3281 14.6069 44.4173 15.6961C45.5066 16.7854 46.984 17.3974 48.5245 17.3974C50.0649 17.3974 51.5423 16.7854 52.6316 15.6961C53.7208 14.6069 54.3328 13.1295 54.3328 11.589Z" fill="#FEFBFD"/>
<path d="M54.3328 11.589C54.3328 13.1295 53.7208 14.6069 52.6316 15.6961C51.5423 16.7854 50.0649 17.3974 48.5245 17.3974C46.984 17.3974 45.5066 16.7854 44.4173 15.6961C43.3281 14.6069 42.7161 13.1295 42.7161 11.589C42.7161 10.0486 43.3281 8.57118 44.4173 7.4819C45.5066 6.39263 46.984 5.78068 48.5245 5.78068C50.0649 5.78068 51.5423 6.39263 52.6316 7.4819C53.7208 8.57118 54.3328 10.0486 54.3328 11.589ZM46.7019 13.2097C46.3425 13.4532 45.9414 13.4891 45.4985 13.3176C45.1299 13.1738 44.8145 12.9616 44.5525 12.6811C44.3693 12.484 44.1954 12.4933 44.0308 12.7089L43.9021 12.8828C43.7514 13.0799 43.763 13.2677 43.9369 13.4462C44.7136 14.2369 45.6226 14.5013 46.6637 14.2392C47.5796 14.0097 48.0039 13.4497 47.9366 12.5593C47.8462 11.3525 46.2011 11.1299 45.2516 10.8516C45.1726 10.8281 45.1011 10.7847 45.0438 10.7255C44.9865 10.6663 44.9454 10.5934 44.9244 10.5138C44.9034 10.4341 44.9033 10.3504 44.9241 10.2707C44.9448 10.191 44.9858 10.1179 45.0429 10.0586C45.5577 9.51953 46.5246 9.73516 47.0115 10.2395C47.0401 10.2691 47.075 10.2921 47.1135 10.3069C47.152 10.3216 47.1933 10.3277 47.2344 10.3247C47.2756 10.3217 47.3155 10.3097 47.3515 10.2896C47.3875 10.2694 47.4187 10.2417 47.4428 10.2082L47.634 9.94733C47.7778 9.74792 47.7511 9.57402 47.5541 9.42562C46.7425 8.80884 45.8811 8.67668 44.9699 9.02912C43.5404 9.57865 43.6725 11.4325 45.182 11.7942C45.706 11.9194 46.1988 12.0979 46.6602 12.3298C47.059 12.5292 47.1065 12.7935 46.8028 13.1228C46.7727 13.1552 46.739 13.1842 46.7019 13.2097ZM52.1242 12.1698C52.1777 12.1691 52.2304 12.1836 52.2759 12.2118C52.3215 12.2399 52.3581 12.2804 52.3815 12.3286C52.4048 12.3768 52.414 12.4306 52.4078 12.4838C52.4017 12.537 52.3805 12.5873 52.3468 12.6289C51.6697 13.4428 50.9092 13.6283 50.0652 13.1854C48.2392 12.2254 49.5991 8.45176 52.2112 10.2812C52.281 10.3316 52.3676 10.3534 52.4539 10.3425C52.5401 10.3315 52.6198 10.2886 52.6772 10.2221C52.7491 10.1386 52.8001 10.0435 52.8302 9.93689C52.8547 9.8547 52.8538 9.76716 52.8277 9.68583C52.8016 9.60449 52.7516 9.53317 52.6842 9.48126C50.646 7.89875 47.8879 9.42561 48.281 12.0411C48.514 13.5854 49.8287 14.6009 51.3625 14.2984C52.719 14.0317 53.454 13.0961 53.5676 11.4916C53.5705 11.4602 53.5667 11.4286 53.5565 11.3987C53.5463 11.3688 53.5298 11.3414 53.5082 11.3182C53.4866 11.2949 53.4603 11.2764 53.431 11.2637C53.4017 11.251 53.37 11.2445 53.338 11.2446L51.0982 11.2377C51.0445 11.2375 50.9913 11.2485 50.9419 11.2699C50.8926 11.2914 50.8481 11.3228 50.8113 11.3622C50.7745 11.4016 50.746 11.4483 50.7278 11.4992C50.7095 11.5502 50.7018 11.6044 50.7052 11.6585L50.7191 11.8046C50.7376 12.0689 50.8791 12.1976 51.1434 12.1907L52.1242 12.1698Z" fill="#F4313F"/>
<path d="M46.7019 13.2097C46.739 13.1842 46.7727 13.1552 46.8028 13.1228C47.1065 12.7935 47.059 12.5292 46.6602 12.3298C46.1988 12.0979 45.706 11.9194 45.182 11.7942C43.6725 11.4325 43.5404 9.57865 44.9699 9.02912C45.8811 8.67668 46.7425 8.80884 47.5541 9.42562C47.7511 9.57402 47.7778 9.74792 47.634 9.94733L47.4428 10.2082C47.4187 10.2417 47.3875 10.2694 47.3515 10.2896C47.3155 10.3097 47.2756 10.3217 47.2344 10.3247C47.1933 10.3277 47.152 10.3216 47.1135 10.3069C47.075 10.2921 47.0401 10.2691 47.0115 10.2395C46.5246 9.73516 45.5577 9.51953 45.0429 10.0586C44.9858 10.1179 44.9448 10.191 44.9241 10.2707C44.9033 10.3504 44.9034 10.4341 44.9244 10.5138C44.9454 10.5934 44.9865 10.6663 45.0438 10.7255C45.1011 10.7847 45.1726 10.8281 45.2516 10.8516C46.2011 11.1299 47.8462 11.3525 47.9366 12.5593C48.0039 13.4497 47.5796 14.0097 46.6637 14.2392C45.6226 14.5013 44.7136 14.2369 43.9369 13.4462C43.763 13.2677 43.7514 13.0799 43.9021 12.8828L44.0308 12.7089C44.1954 12.4933 44.3693 12.484 44.5525 12.6811C44.8145 12.9616 45.1299 13.1738 45.4985 13.3176C45.9414 13.4891 46.3425 13.4532 46.7019 13.2097Z" fill="#FEFBFD"/>
<path d="M52.1242 12.1698L51.1434 12.1907C50.8791 12.1976 50.7376 12.0689 50.7191 11.8046L50.7052 11.6585C50.7018 11.6044 50.7095 11.5502 50.7278 11.4992C50.746 11.4483 50.7745 11.4016 50.8113 11.3622C50.8481 11.3228 50.8926 11.2914 50.9419 11.2699C50.9913 11.2485 51.0445 11.2375 51.0982 11.2377L53.338 11.2446C53.37 11.2445 53.4017 11.251 53.431 11.2637C53.4603 11.2764 53.4866 11.2949 53.5082 11.3182C53.5298 11.3414 53.5463 11.3688 53.5565 11.3987C53.5667 11.4286 53.5705 11.4602 53.5676 11.4916C53.454 13.0961 52.719 14.0317 51.3625 14.2984C49.8287 14.6009 48.514 13.5854 48.281 12.0411C47.8879 9.42561 50.646 7.89875 52.6842 9.48126C52.7516 9.53317 52.8016 9.60449 52.8277 9.68583C52.8538 9.76716 52.8547 9.8547 52.8302 9.93689C52.8001 10.0435 52.7491 10.1386 52.6772 10.2221C52.6198 10.2886 52.5401 10.3315 52.4539 10.3425C52.3676 10.3534 52.281 10.3316 52.2112 10.2812C49.5991 8.45176 48.2392 12.2254 50.0652 13.1854C50.9092 13.6283 51.6697 13.4428 52.3468 12.6289C52.3805 12.5873 52.4017 12.537 52.4078 12.4838C52.414 12.4306 52.4048 12.3768 52.3815 12.3286C52.3581 12.2804 52.3215 12.2399 52.2759 12.2118C52.2304 12.1836 52.1777 12.1691 52.1242 12.1698Z" fill="#FEFBFD"/>
</svg>
